<?xml version="1.0" encoding="utf-8"?>
<!-- Generator: Adobe Illustrator 25.0.0, SVG Export Plug-In . SVG Version: 6.00 Build 0)  -->
<svg version="1.1" id="a9bc6eef-0910-4fa5-aa8e-fd94bbe05bfa"
	 xmlns="http://www.w3.org/2000/svg" xmlns:xlink="http://www.w3.org/1999/xlink" x="0px" y="0px" viewBox="0 0 1151.2 1151.3"
	 style="enable-background:new 0 0 1151.2 1151.3;" xml:space="preserve">
<style type="text/css">
	.st0{fill:#0BA5DE;}
	.st1{fill:#226DB0;}
	.st2{display:none;fill:#0BA5DE;}
	.st3{fill:#FCFEFE;}
	.st4{fill:#F9FDFE;}
	.st5{fill:#F5EB33;}
	.st6{fill:#016A3A;}
	.st7{fill:#E92228;}
	.st8{fill:#FEFEFF;}
	.st9{fill:#05A8E1;}
	.st10{fill:#06AEE4;}
	.st11{fill:#03B4E6;}
</style>
<circle class="st0" cx="576" cy="576.3" r="575.3"/>
<g>
	<path class="st1" d="M844,577.7c-0.9,3.8-1.9,7.6-3,11.4c-1,3.5-2,6.1-4.2,9c-5,6.5-9.7,13.1-15.1,19.3c-7.6,8.7-16.2,16.3-26.4,22
		c-4.1,2.3-8.8,3.5-12.6,6.5c5.1,0.7,10.1-1.1,15.1-1.1c4.4,0,4.3-0.2,5.6,3.8c1.7,5.7,3.8,11.2,6.4,16.5c1.2-1,2.2-2.1,2.9-3.5
		c3.7-5.6,7-11.6,10.2-17.5c6.4-11.9,11.7-24.4,15.8-37.3c4.6-14.5,11.1-28.7,11.9-44.1c0.2-4.6-0.8-9.4,0.4-13.9
		C848.7,558.5,846.4,568.1,844,577.7z"/>
	<path class="st1" d="M850.4,493.3c-0.6-5.9-3.2-13.1-3.2-13.5c0.2,10.8-0.9,21.1-2.1,31.5c-0.5,4-1.4,7.9-1.9,11.9
		c-1.1,8.7-2.9,17.3-5.2,25.7c4.4-0.8,8.9-0.4,13.3-0.8c0,0,0.1-4,0.1-4.2c0.3-7.4,0.9-14.8,0.9-22.2
		C852.3,512.2,851.3,502.7,850.4,493.3z"/>
</g>
<circle class="st2" cx="576" cy="576.3" r="575.3"/>
<path class="st3" d="M970.8,935.6c-98.5,105.4-219.4,165.2-363.8,172.9c-165.1,8.9-305-48.6-420.1-167.1
	C88.8,834.2,39.2,707.9,43,562.6c3.9-150,62-277.1,172.1-379.1C312.2,93.4,428.5,47.7,561.4,42.3c-1.8,6.9-4.4,12.7-6.7,18.6
	c-0.7,1.8-2.2,1.8-3.7,1.9c-4.2,0.2-8.4,0.5-12.7,0.7c-14,0.8-28,2.5-41.8,4.7c-17,2.6-33.9,6.2-50.6,10.6c-2,0.5-4,1.1-6,1.6
	c-2,0.5-3.9,1.1-5.9,1.7c-1.7,0.5-3.4,1-5.1,1.5c-2.8,0.8-5.5,1.7-8.3,2.6c-1.4,0.4-2.8,0.9-4.1,1.3c-15.1,4.9-29.9,10.5-44.4,16.8
	c-1.3,0.6-2.6,1.1-3.9,1.7c-1.3,0.6-2.6,1.2-3.9,1.8c-3.2,1.5-6.4,2.9-9.6,4.5c-1.8,0.9-3.7,1.8-5.5,2.7c-1.9,0.9-3.9,1.9-5.8,2.9
	c-0.3,0.1-0.6,0.3-0.9,0.4c-1.6,0.8-3.2,1.6-4.8,2.5c-0.1,0.1-0.2,0.1-0.3,0.2c-1,0.5-2.1,1.1-3.1,1.6c-0.5,0.3-1.1,0.6-1.6,0.9
	c-1.2,0.6-2.4,1.3-3.6,1.9c-2,1.1-4,2.2-6,3.4c-70.4,40-130.4,96-175.2,163.4c-0.7,1.1-1.4,2.2-2.1,3.2c-0.7,1.1-1.4,2.2-2.1,3.3
	c-0.8,1.2-1.5,2.4-2.3,3.6c-0.8,1.2-1.5,2.4-2.3,3.6c-35.6,57.4-59.4,121.3-70.1,188c-2.5,15.9-4.2,31.8-5.4,47.9
	c-1.5,21-1.7,42-0.5,63c0.8,14.8,2.4,29.6,4.5,44.4c9.6,68.4,33.1,134.1,69,193.2c0.6,1,1.5,1.9,1.5,3.2c0.3,0.3,0.5,0.6,0.8,0.9
	c0.4,0.1,0.9,0.2,1.3,0.3L140,847c0.4,2.3,1.9,4,3.1,5.8c20.9,32.8,45.5,63,73.2,90.2c58.6,57.1,126.8,98.4,204.9,123.2
	c18.9,6,38.1,10.6,57.4,14.7c5.8,1.2,11.6,2.1,17.5,3.1c0.8,0.2,1.7-0.1,2.1-0.8c-4.3-4.5-8.7-9-13.7-14.1h184.6
	c-5,5.1-9.5,9.7-14.1,14.3c0.2,0.2,0.3,0.5,0.5,0.7c8.9-1.7,17.9-3.1,26.8-5c2.1-0.5,4.3-0.9,6.4-1.4c0.2,0,0.3-0.1,0.5-0.1
	c1.9-0.4,3.7-0.8,5.6-1.3c0.4-0.1,0.8-0.2,1.2-0.3c1.8-0.4,3.6-0.9,5.4-1.3c2.1-0.5,4.2-1.1,6.3-1.6c2.1-0.6,4.2-1.1,6.3-1.7
	c2.1-0.6,4.2-1.2,6.3-1.8c4.2-1.2,8.3-2.5,12.4-3.8c2.1-0.7,4.1-1.3,6.2-2c2-0.6,3.9-1.3,5.9-2c0.1-0.1,0.2-0.1,0.4-0.1
	c2-0.7,3.9-1.4,5.9-2.1c0.1,0,0.1,0,0.2-0.1c1.9-0.7,3.8-1.4,5.7-2.1c0.8-0.3,1.6-0.6,2.5-0.9c1.3-0.5,2.6-1,3.8-1.5
	c2-0.8,4-1.5,5.9-2.3c0.1-0.1,0.3-0.1,0.4-0.2c1.3-0.5,2.6-1.1,4-1.6c1.3-0.6,2.7-1.1,4-1.7c0.7-0.3,1.4-0.6,2.1-0.9
	c0.8-0.3,1.6-0.7,2.4-1.1c1.1-0.5,2.3-1,3.4-1.5c1-0.4,2-0.9,3-1.3c1.1-0.5,2.1-1,3.2-1.5c3.2-1.5,6.3-3,9.5-4.5
	c2.2-1,4.3-2.1,6.4-3.2c1.3-0.6,2.5-1.3,3.8-1.9c0.6-0.3,1.2-0.6,1.8-0.9c1.9-1,3.7-2,5.6-3c1.2-0.7,2.5-1.3,3.7-2
	c1.4-0.7,2.7-1.5,4-2.2c1.3-0.7,2.6-1.4,3.8-2.2c1.2-0.7,2.5-1.4,3.7-2.1c1.4-0.8,2.8-1.7,4.3-2.5c0.8-0.5,1.5-0.9,2.3-1.4
	c1.1-0.6,2.2-1.3,3.2-2c1.1-0.7,2.2-1.3,3.2-2c1.6-1,3.2-2,4.8-3c1.4-0.9,2.8-1.8,4.2-2.7c1.4-0.9,2.8-1.8,4.2-2.7
	c1.2-0.8,2.5-1.6,3.7-2.5c0.8-0.6,1.7-1.1,2.5-1.7c0.7-0.5,1.4-0.9,2-1.4c0,0,0.1,0,0.1-0.1c0.1,0,0.1-0.1,0.1-0.1c0,0,0,0,0.1-0.1
	c0.1-0.1,0.2-0.1,0.3-0.2c0,0,0.1,0,0.1-0.1c0.1-0.1,0.2-0.2,0.4-0.2c0,0,0,0,0,0l0,0c0.1-0.1,0.2-0.2,0.3-0.2
	c0.1-0.1,0.2-0.1,0.2-0.2c0.1,0,0.1-0.1,0.2-0.1c0,0,0,0,0,0h0c0,0,0,0,0,0c0,0,0,0,0,0c0,0,0,0,0.1,0c0,0,0,0,0.1,0
	c0.3-0.2,0.6-0.4,0.9-0.7c0.1-0.1,0.2-0.2,0.3-0.2c0,0,0,0,0,0c0,0,0,0,0,0l0.2-0.1l0,0c0.1-0.1,0.2-0.1,0.3-0.2
	c0.1,0,0.1-0.1,0.2-0.1c0,0,0,0,0.1,0c0.2-0.1,0.4-0.3,0.6-0.4c0.3-0.2,0.6-0.4,1-0.7c0.5-0.3,1-0.7,1.5-1c0.1-0.1,0.2-0.1,0.3-0.2
	c0.6-0.5,1.3-0.9,1.9-1.4c0.3-0.2,0.6-0.4,0.8-0.6c0.4-0.3,0.9-0.7,1.3-1c0.1,0,0.1-0.1,0.2-0.1c0,0,0.1-0.1,0.2-0.1
	c0.2-0.2,0.5-0.3,0.7-0.5c0.1-0.1,0.2-0.1,0.3-0.2c0.1-0.1,0.3-0.2,0.4-0.3c0.3-0.2,0.5-0.4,0.8-0.6c0.2-0.1,0.3-0.2,0.5-0.4
	c0.6-0.4,1.1-0.8,1.7-1.2c1.3-1,2.6-2,3.9-3c0.1-0.1,0.1-0.1,0.2-0.2c0.1-0.1,0.2-0.1,0.2-0.2c0,0,0,0,0,0c0,0,0,0,0,0
	c0.1-0.1,0.2-0.2,0.3-0.3c0,0,0,0,0,0c0.6-0.5,1.3-1,1.9-1.5c0.6-0.4,1.1-0.9,1.7-1.3c0.4-0.3,0.7-0.6,1.1-0.8
	c0.3-0.2,0.5-0.4,0.8-0.6c0.6-0.5,1.1-0.9,1.7-1.4c0,0,0,0,0,0s0,0,0,0c0.4-0.4,0.9-0.7,1.3-1c1.1-0.9,2.2-1.7,3.2-2.6
	c0.1-0.1,0.2-0.2,0.4-0.3c0.5-0.4,1-0.8,1.5-1.2c1.1-0.9,2.2-1.9,3.4-2.8c0.2-0.1,0.3-0.3,0.5-0.4c0.5-0.4,0.9-0.8,1.3-1.1
	c0.6-0.5,1.3-1.1,1.9-1.6c0.6-0.5,1.2-1.1,1.9-1.6c0.4-0.3,0.8-0.6,1.1-1c0.4-0.3,0.8-0.7,1.1-1c0.1-0.1,0.2-0.2,0.3-0.3
	c0.4-0.3,0.8-0.6,1.1-1c0,0,0.1-0.1,0.1-0.1c0,0,0.1,0,0.1-0.1c0.1-0.1,0.2-0.2,0.4-0.3c0,0,0,0,0,0c0,0,0,0,0,0
	c0,0,0.1-0.1,0.1-0.1c0,0,0,0,0,0c0,0,0.1-0.1,0.1-0.1c0,0,0.1-0.1,0.1-0.1c0,0,0,0,0,0c0,0,0,0,0.1-0.1c0.1,0,0.1-0.1,0.2-0.2
	c0.1-0.1,0.2-0.2,0.3-0.3c0.2-0.2,0.4-0.3,0.6-0.5c0,0,0.1-0.1,0.1-0.1c0.2-0.2,0.3-0.3,0.5-0.5c0.1-0.1,0.1-0.1,0.2-0.2
	c0.1-0.1,0.1-0.1,0.2-0.2c0.3-0.3,0.6-0.5,0.9-0.8c0.3-0.2,0.5-0.5,0.8-0.7c0.1-0.1,0.2-0.2,0.4-0.3c0.4-0.3,0.7-0.6,1-0.9
	c0.2-0.2,0.4-0.3,0.6-0.5c0,0,0.1-0.1,0.1-0.1c0.1-0.1,0.2-0.1,0.2-0.2c0,0,0.1,0,0.1-0.1c0.2-0.2,0.4-0.4,0.6-0.6
	c0.1-0.1,0.2-0.2,0.3-0.3l0,0c0.1-0.1,0.2-0.2,0.3-0.3c0.1-0.1,0.2-0.2,0.3-0.3c0.1,0,0.1-0.1,0.2-0.2c0,0,0.1-0.1,0.2-0.1
	c0-0.1,0.1-0.1,0.2-0.2c0.2-0.2,0.5-0.4,0.7-0.6c0.2-0.2,0.4-0.3,0.5-0.5c0.1-0.1,0.2-0.2,0.3-0.3c0,0,0,0,0.1-0.1
	c0,0,0.1-0.1,0.1-0.1c0,0,0.1-0.1,0.1-0.1c0.1,0,0.1-0.1,0.2-0.2c0,0,0,0,0.1-0.1c0,0,0,0,0,0c0.2-0.2,0.4-0.4,0.6-0.5
	c0.1-0.1,0.2-0.1,0.2-0.2c0.1-0.1,0.3-0.2,0.4-0.4c0.1-0.1,0.3-0.2,0.4-0.4c0.2-0.2,0.3-0.3,0.5-0.4c0.1-0.1,0.1-0.1,0.2-0.2
	c0.1-0.1,0.1-0.1,0.2-0.2c0,0,0,0,0,0l0.2-0.2c1-1,2.1-2,3.1-3c0.6-0.6,1.3-1.2,1.9-1.8c0.2-0.2,0.4-0.4,0.6-0.6
	c0.1-0.1,0.1-0.1,0.2-0.2c0.1-0.1,0.2-0.2,0.4-0.4c1.1-1.1,2.3-2.2,3.4-3.3c1.2-1.2,2.4-2.5,3.6-3.7c1.2-1.2,2.4-2.5,3.6-3.7
	c1.3-1.3,2.5-2.7,3.8-4c1.3-1.4,2.7-2.9,4-4.3c0.2-0.2,0.4-0.4,0.6-0.6c1.3-1.4,2.6-2.8,3.8-4.2c1.6-1.8,3.3-3.7,4.9-5.5
	c0.8-0.9,1.6-1.9,2.4-2.8s1.6-1.9,2.4-2.8c0.8-0.9,1.6-1.9,2.4-2.8c0.4-0.5,0.9-1.1,1.3-1.6c1.4-1.7,2.8-3.4,4.2-5.1
	c2-2.4,3.9-4.9,5.8-7.4c0.8-1,1.6-2.1,2.4-3.1c1.1-1.4,2.1-2.8,3.2-4.2c1-1.3,1.9-2.6,2.9-3.9c1-1.3,2-2.7,2.9-4c2-2.8,4-5.7,6-8.5
	c0,0,0,0,0,0c2.1-3,4.2-6.1,6.2-9.2c0,0,0.1-0.1,0.1-0.2c2.2-3.3,4.3-6.6,6.4-10c0.3-0.6,0.6-1.2,0.8-1.8c9-13.4,16.4-27.6,23.6-42
	c12.7-25.5,23.2-51.9,31.4-79.1c6.2-20.4,11-41.1,14.6-62.1c2.9-16.5,4.7-33.1,6.1-49.8c1.5-19.3,1.8-38.6,0.9-57.9
	c-0.9-18.6-2.7-37.1-5.4-55.5c-0.2-1.5-0.5-2.9-0.7-4.4c-0.5-2.8-0.9-5.6-1.4-8.4c-0.2-1.4-0.5-2.7-0.7-4.1
	c-0.3-1.4-0.5-2.7-0.8-4.1c-0.1-0.5-0.2-0.9-0.3-1.3c0-0.1-0.1-0.3-0.1-0.4c-0.2-0.8-0.3-1.6-0.5-2.4c-0.1-0.3-0.1-0.7-0.2-1
	c0-0.3-0.1-0.5-0.2-0.8c0,0,0-0.1,0-0.1c-0.1-0.3-0.1-0.5-0.2-0.8c-0.2-0.7-0.3-1.4-0.4-2.1c-0.2-1-0.4-2.1-0.7-3.1
	c-0.3-1.3-0.6-2.7-0.9-4c-0.3-1.2-0.6-2.5-0.8-3.7c-0.3-1.2-0.6-2.5-0.9-3.7c-0.7-2.7-1.3-5.4-2-8.1c-0.3-1.2-0.6-2.3-0.9-3.5
	c-0.1-0.4-0.2-0.7-0.3-1.1c-0.3-1.3-0.7-2.5-1-3.8c-0.4-1.3-0.7-2.6-1.1-3.9c-0.1-0.2-0.1-0.4-0.2-0.6c-0.4-1.2-0.7-2.5-1.1-3.8
	c-0.1-0.2-0.1-0.4-0.1-0.5c-0.3-1-0.6-2-0.9-2.9c-0.4-1.3-0.8-2.6-1.2-3.9c-0.8-2.6-1.6-5.1-2.5-7.7c-0.4-1.3-0.9-2.7-1.3-4
	c-0.5-1.4-0.9-2.8-1.4-4.2c-0.4-1-0.7-2.1-1.1-3.1c0-0.1-0.1-0.2-0.1-0.3c0,0,0,0,0,0c-0.8-2.3-1.7-4.7-2.6-7
	c-0.5-1.5-1.1-2.9-1.7-4.4c0,0,0-0.1,0-0.1c-0.4-0.9-0.7-1.8-1.1-2.7c-0.2-0.6-0.4-1.2-0.7-1.7c-0.6-1.5-1.2-3-1.8-4.5
	c-0.2-0.4-0.3-0.8-0.5-1.2c-0.6-1.4-1.1-2.7-1.7-4.1c0,0,0,0,0,0c-0.3-0.7-0.5-1.3-0.8-2c-0.3-0.7-0.6-1.3-0.8-2c0,0,0-0.1-0.1-0.2
	c-0.6-1.4-1.2-2.7-1.8-4.1c0-0.1-0.1-0.2-0.1-0.3c-0.5-1.1-1-2.3-1.5-3.4c-0.2-0.5-0.5-1.1-0.8-1.7c-0.3-0.7-0.6-1.3-0.9-2
	c-0.6-1.2-1.1-2.4-1.7-3.7c-0.5-1.1-1-2.2-1.5-3.3c0,0,0-0.1-0.1-0.1c0-0.1-0.1-0.2-0.1-0.2c-0.6-1.2-1.2-2.4-1.7-3.6
	c-0.4-0.9-0.8-1.8-1.3-2.6c-0.1-0.1-0.1-0.3-0.2-0.4c-0.5-1-1-2-1.5-3c-1.4-2.8-2.8-5.6-4.3-8.3c-0.6-1.2-1.2-2.4-1.9-3.6
	c0,0,0-0.1-0.1-0.1c-0.6-1.1-1.2-2.3-1.8-3.4c-0.9-1.7-1.8-3.3-2.8-5c-0.1-0.1-0.2-0.3-0.2-0.4c-0.9-1.6-1.8-3.2-2.7-4.8
	c-0.1-0.1-0.1-0.2-0.2-0.3c-0.7-1.2-1.3-2.3-2-3.5c-0.7-1.3-1.5-2.5-2.2-3.8c-0.4-0.6-0.8-1.3-1.1-1.9c-0.9-1.6-1.9-3.2-2.9-4.7
	c-0.6-1-1.2-1.9-1.8-2.8c-0.8-1.2-1.6-2.5-2.3-3.7c-0.4-0.6-0.8-1.2-1.2-1.8c-0.6-1-1.3-1.9-1.9-2.9c-0.1-0.1-0.2-0.2-0.2-0.3
	c-0.4-0.6-0.8-1.2-1.2-1.8c-0.2-0.3-0.4-0.6-0.6-0.9c-1.6-2.4-3.2-4.8-4.8-7.1c-0.5-0.7-0.9-1.3-1.4-2c-0.1-0.2-0.2-0.3-0.3-0.5
	c-0.8-1.2-1.7-2.4-2.5-3.6c-1.1-1.5-2.2-3.1-3.3-4.6c-0.7-1-1.4-1.9-2.1-2.9c-0.8-1.1-1.6-2.2-2.5-3.3c-0.8-1-1.6-2.1-2.4-3.1
	c-0.8-1-1.5-2-2.2-2.9c-0.1-0.1-0.2-0.2-0.3-0.3c-0.8-1-1.5-1.9-2.3-2.9c-0.5-0.7-1.1-1.4-1.6-2.1s-1.1-1.4-1.7-2.1
	c-0.2-0.3-0.4-0.5-0.6-0.8c-0.7-0.9-1.5-1.8-2.2-2.8c-0.4-0.5-0.8-1-1.3-1.5c-0.8-1-1.6-2-2.4-2.9c-0.5-0.6-0.9-1.1-1.4-1.7
	c-0.5-0.5-0.9-1.1-1.4-1.6c-0.4-0.5-0.8-0.9-1.2-1.4c-0.4-0.4-0.8-0.9-1.1-1.3c-0.8-1-1.6-1.9-2.5-2.9c-0.5-0.6-1-1.2-1.6-1.8
	c-0.1-0.1-0.1-0.2-0.2-0.2c-0.9-1-1.8-2-2.7-3c-0.6-0.6-1.1-1.2-1.7-1.9c-1.5-1.6-3-3.2-4.5-4.8c0-0.1-0.1-0.1-0.1-0.1
	c-1.5-1.6-3.1-3.3-4.6-4.9c-0.1-0.1-0.2-0.2-0.3-0.4c-1.5-1.6-3-3.1-4.6-4.7c-0.6-0.6-1.2-1.2-1.8-1.8c-0.6-0.6-1.2-1.2-1.8-1.8
	c-0.6-0.6-1.2-1.2-1.8-1.8c-0.3-0.3-0.7-0.7-1-1c-0.8-0.8-1.5-1.5-2.3-2.2c-0.5-0.5-1-0.9-1.4-1.4c-0.3-0.3-0.6-0.6-0.9-0.8
	c-0.9-0.8-1.7-1.7-2.6-2.5c-0.4-0.4-0.9-0.8-1.3-1.3c-0.3-0.2-0.5-0.5-0.8-0.7c-0.9-0.8-1.8-1.7-2.7-2.5c-0.9-0.8-1.8-1.6-2.7-2.5
	c-0.9-0.8-1.8-1.6-2.7-2.5c-1-0.9-2-1.8-3-2.7c0,0,0,0,0,0c-0.5-0.4-1-0.9-1.5-1.3c-0.5-0.4-1-0.9-1.5-1.3c-2-1.7-3.9-3.4-5.9-5.1
	c-0.1,0-0.1-0.1-0.2-0.2c-1.2-1-2.5-2.1-3.7-3.1c-1.4-1.2-2.8-2.3-4.3-3.5c-0.6-0.5-1.2-1-1.8-1.4c-1.2-0.9-2.3-1.9-3.5-2.8
	c-1.7-1.4-3.5-2.7-5.2-4c-1.2-0.9-2.4-1.9-3.7-2.8c-1-0.8-2.1-1.5-3.1-2.3c-1-0.8-2-1.5-3.1-2.2c-0.2-0.1-0.4-0.3-0.6-0.4
	c-1-0.7-1.9-1.4-2.9-2.1c-1.1-0.8-2.2-1.6-3.3-2.3c-0.4-0.3-0.7-0.5-1.1-0.8c-0.7-0.5-1.5-1-2.2-1.5c-1.1-0.8-2.2-1.5-3.3-2.2
	c-1.2-0.8-2.4-1.6-3.7-2.5c-1-0.7-2.1-1.4-3.1-2.1c-1.1-0.7-2.3-1.5-3.4-2.2c-1.1-0.7-2.3-1.5-3.4-2.2c-1.7-1.1-3.4-2.1-5.1-3.2
	c-1-0.6-1.9-1.2-2.9-1.8c0,0-0.1,0-0.1-0.1c-0.2-0.1-0.4-0.2-0.6-0.3c-0.1-0.1-0.3-0.2-0.4-0.3c-1.4-0.8-2.7-1.7-4.1-2.5
	c-1.4-0.8-2.8-1.6-4.1-2.4c-2.3-1.4-4.7-2.7-7.1-4c-1-0.5-1.9-1.1-2.9-1.6c-0.2-0.1-0.5-0.2-0.7-0.4c-1.2-0.6-2.3-1.3-3.5-1.9
	c-0.2-0.1-0.4-0.2-0.6-0.3c-0.8-0.5-1.7-0.9-2.5-1.4c-0.1-0.1-0.3-0.2-0.4-0.2c0,0-0.1,0-0.1-0.1c-1.2-0.6-2.4-1.3-3.6-1.9
	c-0.1,0-0.1-0.1-0.2-0.1c0,0,0,0,0,0c-0.5-0.3-1-0.5-1.5-0.8c-0.2-0.1-0.3-0.2-0.5-0.2c-0.1-0.1-0.2-0.1-0.4-0.2c0,0,0,0-0.1,0
	c-0.2-0.1-0.4-0.2-0.6-0.3c-0.1-0.1-0.2-0.1-0.4-0.2c-0.1,0-0.2-0.1-0.3-0.1c-0.1,0-0.2-0.1-0.3-0.1c-0.4-0.2-0.8-0.4-1.3-0.6
	c-0.4-0.2-0.8-0.4-1.2-0.6c-0.2-0.1-0.4-0.2-0.6-0.3c-1.2-0.6-2.4-1.2-3.7-1.8c-1.2-0.6-2.5-1.2-3.7-1.8c-1.2-0.6-2.5-1.2-3.7-1.8
	c-0.2-0.1-0.4-0.2-0.6-0.3c-2.2-1-4.4-2-6.6-3c-0.2-0.1-0.3-0.1-0.5-0.2c-2.4-1.1-4.9-2.2-7.4-3.2c-2.5-1.1-5.1-2.2-7.6-3.2
	c-2.6-1.1-5.3-2.1-7.9-3.2c-1.3-0.5-2.7-1-4-1.5c-4.2-1.6-8.3-3.1-12.5-4.6c-23.7-8.4-48.1-15-72.8-19.8c-15.9-3.2-32-5.4-48.2-6.8
	c-8.3-0.6-16.5-1.5-24.8-1.8c-1.5-0.1-3.1,0-3.8-1.8c-2.3-6-4.5-11.9-7.1-18.7C715.7,47,826.6,88.1,921.4,169.2
	c108.8,93.1,172,211.5,185.7,354.2C1122.1,680.1,1075.4,817.7,970.8,935.6z"/>
<path class="st3" d="M615.7,189c-0.1,1.8-0.3,3.7-0.3,5.5c0,17.1-0.1,34.2-0.1,51.2c-5.5-0.9-10.9-2.1-16.4-2.9
	c-5.7-0.9-11.4-0.8-17-1.9c0-30.1-0.1-60.2-0.1-90.4c0-6.9,0.8-6.1-6.3-6.2c-4.2,0-4.2,0.1-4.2,4.2c0,14.4,0,28.8,0,43.1
	c0,12.2-0.1,24.4-0.1,36.6c0,4.1,0,8.1,0,12.2c0,0-0.1,0-0.2,0c-2.7,0.1-5.4,0.2-8.1,0.4c-0.2,0-0.4,0-0.6,0c-0.8,0-1.5,0.1-2.3,0.1
	c-0.2,0-0.5,0-0.7,0c-1,0.1-2.1,0.2-3.1,0.2c-1,0.1-2.1,0.2-3.1,0.2c-1,0.1-2.1,0.2-3.1,0.3c-1.3,0.1-2.6,0.2-3.9,0.4
	c-1.5,0.2-2.9,0.3-4.4,0.5c-0.1,0-0.2,0-0.2,0c-1.4,0.2-2.8,0.3-4.2,0.5c0-18.6-0.1-37.3-0.1-55.9c0.1-3.2-0.2-6.4-0.9-9.6
	c1.1-0.9,0.8-2.1,0.8-3.3c0-6.2,0-12.3-0.1-18.5c-1.1-10.6,2.3-20.2,6.1-29.9c5.4-13.8,10.3-27.8,15.5-41.7
	c5.8-15.1,11.5-30.2,17.7-46.4c6.1,16.1,11.9,31.2,17.8,46.3c1,2.7,2,5.4,3,8.1c1,2.7,2,5.4,3,8.1c2,5.4,4,10.8,5.9,16.2
	c2.6,7.1,5.2,14.3,8.1,21.3c1.9,4.4,0.9,9,1.6,13.5c-0.4,2.7-0.4,5.4,0,8.1c-0.3,2.7-0.4,5.4-0.1,8.1
	C615.2,174.7,615.2,181.8,615.7,189z"/>
<path class="st4" d="M531.9,861.2c-3-1.2-5.2-2-7.3-2.7c-13.7-4.5-27.7-7.5-41.8-10.2c-7.3-1.4-14.6-2.9-22-3.3l0,0.1
	c-0.9-1-2-0.7-3.1-0.5c-0.9-0.2-1.9-0.3-2.8-0.4c-1.3-1-2.8-0.8-4.3-0.6c-2.8-0.4-5.6-1-8.5-1.3c-12.4-1.2-24.8-2.5-37.2-3.3
	c-5.7-0.4-11.4-0.5-17.2-1.1c-8.2-0.8-16.5-1-24.8-0.6c-18-1.3-36.1-1.5-54.2-0.7c-9.8,0.4-19.6,0-29.3,0.9
	c-10.6-0.7-21.1,1.2-31.7,1.1c-0.5,0-0.9,0.4-1.3,0.6c-1.9-0.5-3.7,0-5.5,0.1c-5.4-0.8-10.8,0.7-16.1,0.8c-16.5,0.4-33,2.5-49.5,3.5
	c-11.8,0.8-23.5,2.3-35.2,3.5l0.1-0.5c4.9-4.2,9.7-8.4,14.5-12.6c0.6-0.5,1.2-1.2,1.7-1.8c7.1-5.4,14.2-10.9,21.4-16.1
	c5.7-4.2,11.8-7.8,18.2-10.9c4.4-2.1,9.3-3.1,14.2-3c1.9,0.9,3.2,2.2,3.2,4.5c-1.6,7.4-7.2,12.6-11.5,19.6c5.8-1.4,10.7-1,15.5-1.4
	c3.5-0.3,7.1,0.5,10.5-0.7c15.7-0.2,31.3-1.3,47-1.2c1.9,0,3.7-0.2,5.6-0.3c11.8,0,23.6,0,35.4-0.1c2.7,0.4,5.5,0.5,8.2,0.2
	c14.9,0.6,29.8,1,44.7,1.9c16.6,1,33.1,2.5,49.5,4.5c18.5,2.2,36.8,5.5,54.8,9.9c16.8,3.9,33.2,9.5,48.9,16.5
	C525.3,856.8,528.6,858,531.9,861.2z"/>
<path class="st4" d="M1010.7,846.3c-0.3,0.6-1,0.9-1.7,0.8c-14.9-1.6-29.8-3.2-44.8-4.2c-13.6-1-27.2-2.5-40.8-2.9
	c-4.4-0.1-8.7-1.4-13.1-0.8c-2.2-0.2-4.3-0.7-6.5-0.1c-5.2-1.5-10.5-0.7-15.8-0.9c-6-1.6-12.2-0.7-18.3-0.8
	c-8.6-0.2-17.2-0.4-25.8-0.7c-18.2-0.7-36.5-0.5-54.6,0.6c-2.5-0.1-5.1-0.3-7.6-0.2c-8.6,0.4-17.2,0.9-25.8,1.3
	c-8.9,0.4-17.8,1.2-26.7,2.2c-2.1-0.1-4.3-0.6-6.3,0.7c-1,0.1-1.9,0.2-2.8,0.3c-2.1,0-4.3-0.5-6.2,0.7c-1.7-0.2-3.3-0.2-5,0.3
	c-0.9-0.2-1.8,0-2.5,0.7c-1.9-0.2-3.8-0.1-5.7,0.4c-1.5-0.1-2.9-0.5-4.2,0.6c-1,0.1-1.9,0.3-2.9,0.4c-1.1-0.2-2.2-0.5-3.1,0.5l0-0.1
	c-2.9-0.3-5.7,0.7-8.5,1.1c-12.2,1.7-24.3,4.3-36.3,7c-8.5,2-16.9,4.7-25.8,7.4c1.8-1.6,3.8-2.9,6-3.8c8.6-4,17.4-7.6,26.4-10.5
	c17.5-5.7,35.4-10.1,53.5-13.3c12-2.1,24-3.9,36.1-5.1c9.6-1,19.2-2.4,28.8-2.7c11-0.4,22-1.8,33-1.5c1.7-0.1,3.4-0.3,5-0.7
	c6.6,0,13.2,0,19.7,0c24.1-0.2,48.3-0.4,72.4,0.7c7.1,0.3,14.1,0.3,21.2,0.4c8.7,1.6,17.6,0.2,27.5,2.2c-5-6.5-9.6-11.9-11.9-18.6
	c0.1-1.2,0.2-2.5,0.3-3.7c3.4-2,7-1.9,10.7-0.9c7.8,2.2,14.5,6.4,21.1,10.8c7.2,4.8,14.1,9.9,20.7,15.4c1,0.8,2.2,1.6,3.2,2.4h0
	c0,0.1,0.1,0.1,0.1,0.2c0,0,0,0,0,0c0.1,0.1,0.2,0.2,0.3,0.2c0.1,0,0.1,0,0.2,0h0.1c0.2,0.6,0.7,1.1,1.2,1.2
	C1000.4,837.8,1005.5,842.1,1010.7,846.3z"/>
<path class="st3" d="M617.3,949v32.6c0.1,1.8-1,3.5-2.7,4.3c-3.1,1.6-5.9,3.6-8.8,5.4c-5.2,2.7-10.2,5.6-15,8.9
	c-11.9,7-23.9,14-35.8,21c-5.7,3.3-11.3,6.6-17.8,10.4c-0.1-11.1-0.3-21.4-0.4-31.8c0.4-2.5-0.3-5.7,3.3-6.6
	c4.2-2.1,8.3-4.5,12.2-7.1c1.5-0.8,3-1.6,4.4-2.5c18.5-10.9,36.9-21.8,55.4-32.8C613.6,950,614.9,948.5,617.3,949z"/>
<path class="st3" d="M617.2,1027.3c0,3.1-1,4.8-3.7,6.4c-12.8,7.5-25.6,15.1-38.4,22.8c-2.6,1.6-5.6,2.4-8.6,2.4
	c-8.3-0.2-16.6,0-24.9-0.1c-4.6,0-4.6,0-4.6-4.3c0-3.9-1.2-8.2,0.5-11.5c1.8-3.3,6.2-4.4,9.5-6.4c18.1-10.8,36.3-21.6,54.5-32.3
	c1-0.6,1.9-1.3,2.8-2.1c4.3-1.5,7.6-4.9,11.9-6.3c1.2,1.3,0.5,2.8,1,4.1C617.2,1009,617,1018.1,617.2,1027.3z"/>
<path class="st4" d="M617,1057.2c0,1.3-1.2,1.5-2.2,1.5c-7.9,0-15.8,0-23.7,0l-0.2-1c8.4-5,16.8-10,25.9-15.3
	C617.4,1047.7,617.1,1052.4,617,1057.2z"/>
<path class="st5" d="M454.6,188.9c-0.4,0.2-0.9,0.5-1.4,0.6c-21,6.1-41.2,14.4-60.4,24.8c-40.5,21.6-74.2,50.9-100.4,88.5
	c-21,30.1-36,63.1-45.9,98.4c-1.8,6.5-3.8,13-4.6,19.7c-2.2,8-3.6,16.2-4.2,24.5c-0.7,0.7-1.4,0.9-2.1,0.1c0-0.7,0-1.4,0-2.1
	c0.1-0.5,0.2-1,0.2-1.5c-0.9-17.7,0-35.5,2.7-53c2.5-16.1,6.4-32,11.6-47.5c2.4-7.1,4.5-14.4,7.9-21.1c-0.4-1.7,1.4-2.1,2-3.2
	c4.6-10.4,10.3-20.3,16-30.1c0.6-1.4,1.2-2.7,2-4c4.9-7.2,10.2-14,15.4-20.9c2.9-3.9,7-6.7,9.5-10.9c5.6-5.6,11.1-11.3,16.9-16.8
	c32.2-30.8,70.1-52,112.8-64.5c5.2-1.5,10.4-2.8,15.6-4.2C450.3,173.3,452.4,181.1,454.6,188.9z"/>
<path class="st6" d="M537.2,243.1c-3,1.8-6.5,1.7-9.8,2.5c-8.2,1.9-16.1,5-24.2,7.4c-9.4-7.6-18.8-15-27.3-23.6
	c-3.4-4.3-6.9-8.7-10.3-13c-4.2-9-7.9-18.2-11.1-27.5c-2.2-7.8-4.3-15.5-6.5-23.3c-1.1-6.5-2.3-12.9-3.3-19.3
	c-0.9-5.8-2.2-11.6-1.4-17.8c4,0.1,7.6,1.5,11.2,2.6c18.9,5.8,36.8,14.4,53.1,25.5c0.1,0.3,0.3,0.6,0.5,0.8
	c8,5.7,15.5,12.1,22.5,18.9c1.4,1.5,3.6,2,5.6,1.3c0.6,3.2,0.9,6.4,0.9,9.6C537.2,205.9,537.2,224.5,537.2,243.1z"/>
<path class="st5" d="M536.3,177.6c-2,0.7-4.1,0.2-5.6-1.3c-7-6.8-14.6-13.2-22.5-18.9c-0.2-0.2-0.4-0.5-0.5-0.8
	c9.8-0.6,19.5-1.3,29.3-0.7c0,6.2,0.1,12.3,0.1,18.5C537.1,175.5,537.4,176.7,536.3,177.6z"/>
<path class="st7" d="M661.6,261.2c-2.3,13.2-1.6,26.5-1.9,39.7c-14.1-6.1-29-10.4-44.1-13c-1.5-0.2-3-0.5-4.5-0.7
	c-9.8-1.2-19.7-2-29.5-0.4c-3.4,0.8-7.1,0.2-10.3,1.8c-12.1,1.8-23.8,5.9-34.4,12.1c-15.3,7.4-28.8,18.1-39.5,31.3
	c-9.7,11.8-15.5,25.8-20.2,40.1c-4.5,14-6.2,28.9-5,43.6c1,13.5,3.7,26.8,8,39.6c3,9.3,6.6,18.5,12.1,26.7c-0.1,1.3,0.8,2.2,1.4,3.2
	c4.8,8,10.2,15.6,16.1,22.8c8.3,9.8,17,19.2,27.5,26.8c0.1,0.7,0.2,1.3,0.2,2c0,25.6,0,51.3,0,76.9c0,1.2-0.2,2.3-0.3,3.5
	c-0.6-0.3-1.3-0.5-1.9-0.8c-22.1-11.7-42.5-26.3-60.6-43.5c-6.5-6.1-12.6-12.7-18.8-19c-0.7-1-1.5-2-2.2-3c-0.2-0.3-0.5-0.7-0.8-1
	c-3.7-4.4-7.2-8.9-10.5-13.5c-0.5-0.7-1-1.3-1.4-2c-10.9-15.4-18.1-33-26.4-49.8c-4.4-9.1-6.4-18.7-8.5-28.5
	c-4.1-19.6-6.6-39.7-5.3-59.8c0.2-3.8,0.5-7.7,1.2-11.4c0-0.1,0-0.2,0-0.3c2.9-20.9,8.9-41.8,19.4-60.3c2.1-3.7,4.3-7.3,6.6-10.8
	c1.5-2.3,2.8-4.7,4.4-7c2.1-3,4.4-5.7,6.8-8.4c2.1-2.4,4.1-4.8,6.2-7.1c4.9-5.2,10.2-10,15.8-14.3c2.1-1.6,4.1-3.2,6.3-4.6
	c11.2-7.9,23.5-13.8,36.1-19.1c8.1-2.4,15.9-5.5,24.2-7.4c3.3-0.8,6.8-0.7,9.8-2.5c1.5-0.2,2.9-0.4,4.4-0.5c1.5-0.2,2.9-0.3,4.4-0.5
	c1.3-0.1,2.6-0.3,3.9-0.4c1-0.1,2.1-0.2,3.1-0.3c1-0.1,2.1-0.2,3.1-0.2c1-0.1,2.1-0.2,3.1-0.2c0.2,0,0.5,0,0.7,0
	c0.8,0,1.5-0.1,2.3-0.1c0.2,0,0.4,0,0.6,0c2.7-0.2,5.4-0.3,8.1-0.4c0,0,0.1,0,0.2,0c3.6,0.6,7.2,0.7,10.8,0.5c5.6,1.1,11.4,1,17,1.9
	c5.5,0.9,10.9,2,16.4,2.9C631.1,249.6,646.7,254.3,661.6,261.2z"/>
<path class="st5" d="M693.6,197.2c-3.3,5.4-7.4,10.3-11.2,15.4c-21.3-10.4-43.5-18.7-66.7-23.6c-0.5-7.1-0.5-14.3-0.1-21.4
	C642.8,174.1,668.7,184.5,693.6,197.2z"/>
<path class="st8" d="M912.3,807.6c-3.9-0.3-7.8-0.9-11.6-0.9c-27.3-0.1-54.5-0.1-81.8,0c-2.5,0-5.1-0.2-7.5,0.8
	c-14.1,0.1-28.1,0.6-42.1,1.7c-7.6,0.6-15.2,0.8-22.8,1.5c-13.3,1.2-26.5,2.6-39.8,4.6c-15.7,2.4-31.2,5.6-46.6,9.6
	c-13.9,3.7-27.7,7.6-40.9,13.4c-1-0.1-1.9,0.3-2.6,1l-0.3,0l-0.1,0.2l-0.4,0.1v0.4c-1.1,4.8-0.3,9.6-0.5,14.4c0,0.9-0.1,1.7-0.1,2.6
	c0,0.9,0,1.7,0,2.6c0,0.3,0,0.5,0,0.8c0,0.8,0,1.6,0,2.5c0,0.7,0,1.3,0,2c-23.1,0-46.1,0-69.2,0.1c-2.7,0-5.4,0.1-8.1,0.2
	c-1.3-3.4-0.7-6.9-0.8-10.4c-0.1-3.9,0.1-7.7,0.1-11.5c1.7-0.1,2.7-1.4,3.8-2.3c17.9-13.9,35.1-28.8,51.3-44.7
	c37.1-36,70-75.4,95.8-120.4c1.4-2.9,4.3-4.7,7.5-4.8c10.5-0.8,20.7-3.2,30.8-5.7c19.4-4.7,37.8-12.2,56.3-19.5
	c5.1,0.7,10.1-1.1,15.1-1.1c4.4,0,4.3-0.2,5.6,3.8c1.7,5.7,3.8,11.2,6.4,16.5c1.4,3.5,3,7,4.7,10.4c0.4,0.9,0.9,1.7,1.3,2.6
	c0.4,0.8,0.9,1.7,1.3,2.5c0.4,0.7,0.8,1.4,1.2,2.1c0.4,0.7,0.8,1.4,1.2,2c0.8,1.4,1.6,2.7,2.5,4c0.7,1.1,1.4,2.1,2.1,3.2v0
	c0.9,1.4,1.8,2.9,2.6,4.3c0.8,1.3,1.6,2.6,2.4,3.8c0.2,0.3,0.4,0.6,0.6,0.9c0.3,0.5,0.7,1,1.1,1.5c1.1,1.5,2.2,3,3.5,4.4
	c0.2,0.2,0.4,0.4,0.6,0.7c0,0,0.1,0.1,0.1,0.1c0.2,0.2,0.4,0.4,0.6,0.6c0.2,1.8,1.5,3,2.5,4.3c1.3,1.8,2.6,3.6,4,5.3
	c1.3,1.8,2.7,3.5,4,5.3c1.3,1.8,2.7,3.5,4,5.3c5.4,7,10.9,13.9,16.5,20.8c1.4,1.7,2.8,3.4,4.2,5.1c4.9,6,9.5,12.2,15,17.7
	c3.6,5.1,7.7,9.9,12.2,14.4c1.6,2.6,3.7,5,6.1,7h0c3.1,4.4,6.6,8.4,10.5,12.1C915.8,808.3,913.3,807.2,912.3,807.6z"/>
<path class="st1" d="M341.8,394c-7.7,33.2-6.7,67.3,2.8,100c8.9,30.7,22.9,59.8,40,86.7c8.6,13.5,18.1,26.4,28.7,38.3
	c8.2,9.2,17,17.9,26.3,26.1c5.5,4.8,11.3,9.1,16.9,13.7c-0.2,0-0.5,0.1-0.7,0.1c-0.7,0-1.4,0-2,0c-17.1-3.6-34.5-6.1-51.8-8.5
	c-15.3-2.2-30.8-3.6-46.1-5.7c-9.3-11.4-17.7-23.5-25.2-36.1c-7.2-12-13.7-24.4-19.3-37.3c-3.6-8.2-6.5-16.6-9.9-24.9
	c-10.4-25.3-14.3-53.7-15.5-80.9c-1.2-27,1.8-53.8,8-80.1c1.8-7.9,4.5-15.6,7.1-23.2c3.5-10.3,8.2-20,12.7-29.8
	c4.1-9.1,10-17.2,15.6-25.3c8.9-11.7,18.6-22.7,29.2-32.9c11.6-11.1,24.4-20.9,38.1-29.2c17.3-10.6,35.9-19.1,55.3-25.1
	c4.5-1.5,9.1-2.6,13.7-3.4c3.4,4.3,6.9,8.7,10.3,13c-3.5,2-7.1,3.9-10.6,6c-17.6,10.7-34.1,23.2-49.2,37.2
	c-11.3,10.5-21.7,21.8-31.2,34c-12,15.1-22,31.6-30.1,49.2C349.7,368.3,344.8,380.8,341.8,394z"/>
<path class="st8" d="M664.1,666.7L664.1,666.7L664.1,666.7c-0.7,1.3-1.5,2.6-2.2,3.8c-0.2,0.3-0.4,0.7-0.6,1c-0.5,0.8-1,1.6-1.4,2.4
	c-0.8,1.2-1.5,2.5-2.3,3.7c-0.5,0.8-1,1.6-1.5,2.4c-0.5,0.8-1,1.6-1.5,2.4c-0.4,0.6-0.8,1.2-1.2,1.8c-0.5,0.7-1,1.4-1.4,2.1
	c-0.6,0.9-1.3,1.9-1.9,2.8c-0.8,1.2-1.7,2.4-2.6,3.6c-0.9,1.2-1.7,2.4-2.6,3.6c-28,38.2-63.2,70.4-103.7,95c-2.8,1.7-4,3.4-3.9,6.8
	c0.2,12.2,0.1,24.4,0,36.6c0,1.6,0.8,3.4-1.1,4.6c-4.6-0.9-8.5-3.4-13-4.7c-8.8-2.5-17.1-6.5-26.3-7.9c-1.9-0.1-3.6-0.8-5.1-1.9
	c-1.1-0.9-2.3-0.2-3.5-0.4c0-0.3-0.2-0.5-0.4-0.5c-1-0.9-2.4-1.2-3.7-1c-3-0.3-5.9-1.1-8.7-2.2c-1.4-0.7-3-1-4.5-0.8l-10.7-2.2
	c-1.4-0.7-3-1-4.5-0.7c-0.5-0.1-0.9-0.2-1.3-0.2c-1.4-0.9-3.1-1.2-4.8-0.9c-3-1-6.2,0-9.2-1.3c-1.5-0.9-3.3-1.2-5.1-0.7
	c-0.7-0.1-1.4-0.2-2-0.3c-1.6-1.1-3.3-1-5.1-0.7c-0.8-0.1-1.5-0.2-2.2-0.3c-2.3-0.3-4.6-0.5-6.9-0.8c-1.3-0.5-2.8-0.6-4.2-0.2
	c-3.3-0.9-6.7-1.1-10.1-0.8c-0.7-0.1-1.5-0.1-2.2-0.2c-3.2-1.3-6.7-1-10-0.8c-3.9-0.3-7.7-0.8-11.6-1c-13-0.7-26-1.5-39.1-1.4
	c-1.1-0.3-2.3-0.5-3.4-0.6c-10.1-0.1-20.2-0.1-30.3-0.1c-5.1-0.4-50.6-0.9-68.2,0.9c-1-0.3-3,0.2-1.9-2
	c10.4-11.1,20.3-22.6,29.7-34.5c8.1-8.6,15.2-18.1,22.7-27.2c5-6.1,10.1-12.2,14.5-18.8c6.1-7.2,11.8-14.8,17-22.6
	c11.6-16.7,21.2-34.5,27.2-54.1c1.1-3.6,1.2-3.6,5.3-3.6c0.5,0,1-0.1,1.5-0.1c15.4,2.1,30.8,3.5,46.1,5.7c17.3,2.5,34.6,5,51.8,8.5
	c0.7,0.1,1.3,0.1,2,0c1,0.8,2.4,1.1,3.7,0.8c1.8,0.2,3.4,1.6,5.4,1.2c1.2,0.4,2.4,1,3.7,0.7c0.7,0.1,1.4,0.3,2.1,0.4
	c0.4,0.6,1.2,0.9,1.9,0.6c6.5,1.4,12.8,3.7,19.4,4.4c10.1,2.7,20.1,5.5,30.2,8.2c4.8,1.3,9.4,3.3,14.4,3.9c0.8-1.9,0.5-3.6,0.5-5.3
	c0-16.7,0-33.4,0-50.1c0-2.2-0.2-4.4-0.3-6.6c0.1-1.2,0.3-2.3,0.3-3.5c0-25.6,0-51.3,0-76.9c0-0.7-0.1-1.3-0.2-2
	c0-2.5,0.1-5.1,0.1-7.6c0.1-10.6,0.2-21.3,0.2-31.9c10.5,13.3,21.3,26.3,34,37.6c0,0.2-0.1,0.3-0.1,0.5c0,60.2-0.1,120.4-0.1,180.6
	c0,3.8,0.1,3.9,4,3.9c7.5,0,6.5,0.8,6.5-6.4c0-54.6,0-109.2,0-163.8c0-1.1,0-2.2,0.1-3.3c0-1.1,0.1-2.2,0.1-3.3v0
	c0.7,0.4,1.3,0.7,2,1.1c0.5,0.3,0.9,0.5,1.4,0.7c0.2,0.1,0.3,0.2,0.5,0.2c0.2,0.1,0.5,0.2,0.7,0.3c1,0.5,2,1,3.1,1.5
	c0.6,0.3,1.2,0.5,1.8,0.8c0.7,0.3,1.5,0.6,2.2,0.9c0.8,0.4,1.7,0.7,2.5,1c0.7,0.3,1.4,0.5,2.1,0.8c0.7,0.2,1.4,0.5,2.1,0.7
	c0.6,0.2,1.3,0.4,2,0.6c0.5,0.1,0.9,0.3,1.3,0.4c0.5,0.2,1,0.3,1.6,0.5c1.3,0.4,2.7,0.8,4,1.1c1.3,0.3,2.6,0.7,3.9,1
	c0.7,0.2,1.5,0.4,2.2,0.5c0.1,5,0.2,10,0.3,15c-0.1,0.9-0.2,1.7-0.2,2.5c0,21.8,0,43.6,0,65.4c0,1.2,0.2,2.3,0.3,3.5
	c-0.2,0.8-0.3,1.7-0.3,2.5c0,11.5,0,22.9,0,34.4c-0.1,1,0.2,2,0.8,2.7c1.2-0.3,2.5-0.7,3.7-1c2.5-0.7,4.9-1.4,7.4-2.1
	c6.2-1.8,12.4-3.5,18.6-5.2c4-1.1,8-2.1,12.1-3c0.9-0.2,1.8-0.4,2.7-0.6c0.4-0.1,0.8-0.2,1.1-0.2c0.2-0.1,0.5-0.1,0.8-0.2
	C663.1,666.9,663.6,666.8,664.1,666.7z"/>
<path class="st6" d="M721.5,295.6c-0.6,1.2-0.5,2.7,0.1,3.9c-1.3,0.4-1.5,1.6-1.9,2.7c-1.3,4-2.7,8-4.2,11.9
	c-2.5,6.6-5.1,13.2-7.7,19.8c-0.4,0.5-0.8,1.1-1.2,1.6c-5.6,11.8-11.2,23.5-18.1,34.5c-1.2,1.9-0.9,3.2,0.2,5
	c5.5,9.1,10.4,18.6,14.7,28.3c0.6,1.2,1.1,2.4,1.6,3.7c0.5,1.1,1,2.2,1.5,3.4c0.5,1.3,1.1,2.6,1.6,3.9c1.6,3.9,3.2,7.8,4.8,11.6
	c0.2,0.4,0.3,0.8,0.5,1.2c0.7,2.6,1.4,5.3,2.1,7.9c-6.9-4.7-14.3-6.9-22.5-4.3c-2.8,0.9-3.9-0.1-4.8-2.7c-2.5-7.2-5.2-14.3-8.2-21.3
	c-10.6-25.1-23.8-49-39.4-71.3c-7.8-11-15.5-22.1-25.1-31.8c-0.3-3.8-0.4-7.7-0.1-11.6c1.7,0.7,3.3,1.6,4.8,2.8
	c12.2,9.4,23.4,19.9,33.6,31.4c3.2,3.6,5.9,7.6,10.4,11.5c-2.2-12.9-4.1-24.9-4.6-37c0.3-13.2-0.5-26.5,1.9-39.7
	c1.9-6.8,3.3-13.8,6-20.4c4.1-9.8,9-19.3,14.8-28.2c3.8-5.1,7.9-9.9,11.2-15.4c3.6-2.7,5.8-6.8,9.2-9.8c2.5-2.2,2.4-2.2,4.8,0.5
	c1.9,6.1,3.7,12.3,6.2,18.3c-0.1,1,0.3,1.9,0.9,2.6c0.1,1.2,0.2,2.3,0.4,3.5c2,7.5,4,15.1,6,22.6c1.3,7.6,3,15.2,3.6,22.9
	c0.5,5.4,1.7,10.7,1.1,16.1C725.1,281.3,723.7,288.5,721.5,295.6z"/>
<path class="st3" d="M615.5,292.1c-0.3,3.9-0.3,7.7,0.1,11.6c-0.1,1.9-0.2,3.7-0.2,5.6c0,13.7-0.1,27.4-0.1,41.1
	c-3.3-1.6-6.6-3.1-9.9-4.7c-7.7-3.7-15.8-6.2-23.7-9.4c0-16.5-0.1-32.9-0.1-49.4c9.9-1.6,19.7-0.8,29.5,0.4c1.5,0.2,3,0.4,4.5,0.7
	C615.6,289.3,615.5,290.7,615.5,292.1z"/>
<path class="st4" d="M571.3,333.3c-0.7,0.1-1.3,0-2-0.1c-10.6-3-21.5-4.1-32.2-6.1c0-8.8,0.4-17.6-0.2-26.4
	c10.6-6.2,22.3-10.3,34.4-12.1C571.2,303.5,571.3,318.4,571.3,333.3z"/>
<path class="st1" d="M402.5,441.6"/>
<path class="st9" d="M617,936.3c0.1-0.5,0.1-1.1,0.1-1.7C617.1,935.2,617.1,935.8,617,936.3z"/>
<path class="st9" d="M617.2,929.1c0,1.5-0.1,3-0.1,4.5c0,0.1,0,0.2,0,0.2v-0.2C617.1,932.1,617.2,930.6,617.2,929.1z"/>
<path class="st4" d="M666.1,902.2c-0.1,2.5-0.2,5.1-0.2,7.6c0,1.7-0.8,2.5-2.5,2.4c-1.2,0-2.4,0-3.6,0c-55,0-110,0-165,0
	c-0.3,0-0.7,0-1,0c-5,0-4.9,0-5-4.9c0-1.7-0.1-3.4-0.2-5.1c0.3-6,0.3-6,6.6-6h163.7c0.7,0,1.4,0,2,0c5.2,0,5.1-0.2,5,5
	C666,901.5,666,901.9,666.1,902.2z"/>
<path class="st3" d="M617.1,933.7c0,0.1,0,0.2,0,0.2c0,0.2,0,0.5,0,0.7c0,0.6,0,1.2-0.1,1.7c-0.1,0.6-0.3,1.1-0.8,1.6
	c-7.2,4.2-14.4,8.5-21.7,12.7c-7.2,4.2-14.4,8.5-21.6,12.8c-10,6-20.2,11.6-30,18c-2.2,0.2-3.5,2.9-6.1,2.1
	c0-10.3,0.3-20.5,0.1-30.8c-0.1-3.9,0.9-6.4,4.5-7.9c1.6-0.6,3-1.5,4.2-2.8c5.2-3.5,10.8-6.4,16.2-9.4c2.3-1.3,4.4-2.8,6.6-4.2
	c4.5-1.6,8.2-4.5,12.3-6.8c2.2-1.3,4.6-2,7.2-2c8.1,0.1,16.2,0,24.3,0c4.7,0,4.7,0,5.2,4.9c0,1.5-0.1,3-0.1,4.5
	C617.2,930.6,617.1,932.1,617.1,933.7z"/>
<path class="st4" d="M564.5,919.7c-1.1,2.7-4.3,2.7-5.6,4.7c-5.1,1.8-9.2,5.3-13.9,7.9c-2.3,1.3-5,2-7.1,4.8
	c-1.7-4.9-0.3-9.3-1.1-13.5c0.7-3.8,0.7-3.9,4.1-3.9C548.7,919.6,556.4,919.7,564.5,919.7z"/>
<path class="st4" d="M666,887.1c0.1,2.2-0.9,3-3,2.9c-1.2-0.1-2.4,0-3.6,0H495.2c-1.2,0-2.4-0.1-3.5,0c-2.3,0.2-2.9-1-2.8-3
	c0.1-3.4,0.1-6.8,0-10.2c-0.1-2.2,0.9-3.1,3-2.9c1,0.1,2,0,3.1,0H660c1,0,2,0.1,3,0c2.3-0.2,2.9,1,2.9,3
	C665.8,880.3,665.8,883.7,666,887.1z"/>
<path class="st6" d="M865.2,548c-1,4.5-3.3,7.7-5,11.2c-5.1,10.5-11.7,20.2-17.1,30.5c-0.1,0.1-0.3,0.2-0.4,0.3
	c-0.2,0.1-0.3,0.3-0.5,0.4c-0.1,0.1-0.1,0.1-0.2,0.2c-0.1,0.1-0.3,0.3-0.4,0.4c-6,9.2-12.6,18-19.9,26.3c-7.6,8.7-16.2,16.3-26.4,22
	c-4.1,2.3-8.8,3.5-12.6,6.5c-18.5,7.2-36.9,14.8-56.3,19.5c-10.2,2.5-20.4,4.8-30.8,5.7c-3.2,0-6.1,1.9-7.5,4.8
	c-25.8,45-58.7,84.4-95.8,120.4c-16.2,15.9-33.3,30.8-51.3,44.7c-1.2,0.9-2.2,2.2-3.8,2.3c-0.2-1.3-0.1-2.8-1.2-3.8
	c1.9-1.2,1.1-3,1.1-4.6c0.1-12.2,0.2-24.4,0-36.6c-0.1-3.4,1.1-5.1,3.9-6.8c40.4-24.6,75.7-56.9,103.7-95c0.9-1.2,1.8-2.4,2.6-3.6
	c0.9-1.2,1.7-2.4,2.6-3.6c0.7-0.9,1.3-1.9,1.9-2.8c0.5-0.7,1-1.4,1.4-2.1c0.4-0.6,0.8-1.2,1.2-1.8c0.5-0.8,1-1.6,1.5-2.4
	c0.5-0.8,1-1.6,1.5-2.4c0.8-1.2,1.6-2.5,2.3-3.7c0.5-0.8,1-1.6,1.4-2.4c0.2-0.3,0.4-0.7,0.6-1c0.8-1.3,1.5-2.5,2.2-3.8
	c5.7-10,11.3-20,15.5-30.8c4.6-8.9,7.7-18.4,10.9-27.8c3.7-10.7,6.2-21.7,8.9-32.7c0.2,0,0.5,0,0.8,0.1c0.8,0.1,1.5,0.2,2.3,0.3
	c7.4,1.7,14-0.5,20.1-4.5c0.2-0.1,0.3-0.2,0.5-0.4c0,0,0,0,0,0c0.1-0.1,0.2-0.2,0.3-0.3c0.3-0.3,0.7-0.6,1-1
	c0.1-0.1,0.3-0.3,0.4-0.4c0.1-0.1,0.2-0.2,0.4-0.3c0.1-0.1,0.2-0.2,0.4-0.3c0.1-0.1,0.2-0.2,0.3-0.2c0.1-0.1,0.2-0.1,0.3-0.2
	c0.1-0.1,0.2-0.1,0.3-0.2c0.1-0.1,0.2-0.1,0.3-0.2c0.1,0,0.2-0.1,0.4-0.1l0.1,0v0c0.1,2.3-0.1,4.5-0.4,6.8c-0.1,0.9-0.3,1.8-0.4,2.7
	c-0.1,0.5-0.2,1-0.3,1.5c-0.5,2.6-1.2,5.3-1.9,7.9c-0.2,0.9-0.5,1.8-0.7,2.7c-0.1,0.4-0.2,0.9-0.3,1.3c-1.8,7.7-4.1,15.2-6.6,24
	c1.6-2,2.5-3.1,3.4-4.2c13.1-16.4,28.4-30.3,46.7-40.8c3.2-1.9,6.6-3.6,10-5.2c1.4-0.7,2.7-1.3,4.1-2c1.6-0.8,3.3-1.7,5-2.4
	c1.7-0.7,3.5-1.2,5.2-1.7c1.8-0.5,3.5-1.1,5.3-1.5c3.6-1,7.3-1.9,11-2.8c3.7-0.8,7.4-1.6,11.1-2.2c3.7-0.6,7.4-1.2,11.2-1.7
	c1.4-0.2,2.8-0.3,4.3-0.5c0.7-0.1,1.4-0.1,2.1-0.2c0.7-0.1,1.4-0.1,2.1-0.2c4.4-0.8,8.9-0.4,13.3-0.8H865.2z"/>
<path class="st5" d="M892.9,576c-3.5,20.1-9,39.9-16.4,59c-10,25.5-22.5,49.6-39.3,71.3c-0.5,0.7-1.1,1.3-1.7,1.9
	c-0.2-0.2-0.4-0.4-0.6-0.6c0,0-0.1-0.1-0.1-0.1c-0.2-0.2-0.4-0.4-0.6-0.7c-1.3-1.4-2.4-2.9-3.5-4.4c-0.4-0.5-0.7-1-1.1-1.5
	c-0.2-0.3-0.4-0.6-0.6-0.9c-0.8-1.3-1.6-2.6-2.4-3.8c-0.9-1.4-1.8-2.9-2.6-4.3h0v0c4.8-6.3,9.2-12.9,13.1-19.8
	c14.2-24.4,24.7-50.7,31.3-78.2c2.5-10,4.9-20,5.4-30.3c1.6-4.4,1.3-9,1.9-13.5c2-17.2,1.7-34.6,0.6-51.8
	c-1.3-18.4-4.3-36.6-9.1-54.4c-9.1-34.5-22.9-67.6-41.2-98.3c-19.9-34-45.6-64.2-75.9-89.3c-9.2-7.7-18.7-15.1-29-21.3
	c-2-7.5-4-15.1-6-22.6c-0.2-1.1-0.3-2.3-0.4-3.5c11.3,6.9,22.5,14,33.2,21.9c4.2,3.1,8.1,6.6,12.6,9.2c0.5,1.1,1.6,1.7,2.5,2.5
	c16.2,13.3,31.3,28,45,43.8c7.8,9,14.7,18.5,22,27.9c0.5,0.7,0.9,1.4,1.4,2.1c0,0.5,0.2,0.7,0.6,0.7c4.2,6.9,8.5,13.7,12.6,20.6
	c12.9,21.6,23.6,44.4,32.1,68.1c6.3,17.5,11.3,35.4,14.9,53.7c2.2,11.5,3.8,23,4.8,34.6C898.7,521.4,897.6,548.9,892.9,576z"/>
<path class="st10" d="M824,691.8L824,691.8c-0.7-1-1.4-2.1-2.1-3.2C822.6,689.7,823.3,690.8,824,691.8z"/>
<path class="st6" d="M729.8,550.9c-0.6,10.3-6.6,18.5-17.4,21.3c-9.6,2.4-19.1-0.5-25.1-10c-1.5-2.3-3-3.2-5.7-3.1
	c-9,0.5-17.9-0.2-26.9-0.9c-6.4-0.5-12.8-0.9-19.2-1.8c-6.9-0.9-13.6-2.4-20.5-3.2c-0.7-0.2-1.4-0.3-2.2-0.5c-1.3-0.3-2.6-0.7-3.9-1
	c-1.3-0.4-2.7-0.7-4-1.1c-0.5-0.1-1-0.3-1.6-0.5c-0.4-0.1-0.9-0.3-1.3-0.4c-0.7-0.2-1.3-0.4-2-0.6c-0.7-0.2-1.4-0.5-2.1-0.7
	c-0.7-0.2-1.4-0.5-2.1-0.8c-0.9-0.3-1.7-0.6-2.5-1c-0.8-0.3-1.5-0.6-2.2-0.9c-0.6-0.2-1.2-0.5-1.8-0.8c-1-0.5-2.1-1-3.1-1.5
	c-0.2-0.1-0.4-0.2-0.7-0.3c-0.2-0.1-0.3-0.2-0.5-0.2c-0.5-0.2-0.9-0.5-1.4-0.7c-0.6-0.3-1.3-0.7-2-1.1v0h0
	c-3.5-2.7-7.1-5.4-10.6-8.1c-12.7-11.3-23.5-24.3-34-37.6c-2.6-3.8-5.3-7.6-8-11.6c2.3-1.7,5.4-1.4,7.7-2.8c0.5,0.1,1,0.2,1.5,0.1
	c10.8-2.2,21.8-3.6,32.8-4.3c3.5,0.2,6.9,0.2,10.4-0.2c1.2,0.2,2.3,0.4,3.5,0.4c9.9,0.3,19.8,1.8,29.4,4.4
	c7.8,2.1,15.4,5.2,22.4,9.3c18.5,10.4,34.2,24.3,48.8,39.3c3.7,3.8,3.6,3.8,8.2,0.9c7.8-4.9,16-5.4,24-0.9
	C726.1,534.5,730.3,541.9,729.8,550.9z"/>
<path class="st11" d="M699.4,575.4c0.2,0,0.5,0,0.8,0.1C699.9,575.4,699.7,575.4,699.4,575.4L699.4,575.4z"/>
<path class="st7" d="M699.4,575.4c-2.7,11-5.2,22-8.9,32.7c-3.2,9.4-6.3,18.9-10.9,27.8c-21,4.4-42.5,5.7-63.9,3.9
	c-0.1-1.2-0.3-2.3-0.3-3.5c0-21.8,0-43.6,0-65.4c0-0.8,0.1-1.7,0.2-2.5c7.8,1.3,15.7,1.9,23.6,2c14,0.1,27.9-2.2,41.2-6.8
	c2.5-0.9,4-1,5.7,1.7C689,570.3,694,573.3,699.4,575.4z"/>
<path class="st7" d="M727.3,567.5L727.3,567.5c0,0-0.1,0-0.1,0L727.3,567.5z"/>
<path class="st7" d="M804.4,493.2c-0.2,1.3-0.3,2.5-0.5,3.8c-0.2,1.3-0.4,2.5-0.6,3.8c-0.2,1.3-0.4,2.5-0.6,3.8
	c-0.2,1.3-0.4,2.5-0.7,3.8c-0.2,1.3-0.5,2.5-0.8,3.8c-0.3,1.2-0.5,2.5-0.8,3.7c-0.3,1.2-0.6,2.5-0.9,3.7c-0.3,1.2-0.6,2.5-1,3.7
	c-0.3,1.2-0.7,2.5-1,3.7c-0.4,1.2-0.7,2.4-1.1,3.7c-0.4,1.2-0.8,2.4-1.2,3.6c-0.4,1.2-0.8,2.4-1.3,3.6c-0.4,1.2-0.9,2.4-1.3,3.6
	c-0.5,1.2-0.9,2.4-1.4,3.6c-0.5,1.2-1,2.4-1.5,3.5c-0.5,1.2-1,2.3-1.6,3.5c-0.5,1.2-1.1,2.3-1.7,3.5c-0.3,0.6-0.6,1.1-0.8,1.7
	c-0.4,0.9-0.6,1.8-0.9,2.7c0,0.1,0,0.1-0.1,0.2c0,0-0.1,0.1-0.1,0.1c-3.2,1.8-6.6,3.3-9.9,4.9c-2.7,1.3-5.4,2.7-8,4.2
	c-18.2,10.5-33.5,24.4-46.7,40.8c-0.9,1.1-1.8,2.2-3.4,4.2c2.4-8.8,4.8-16.3,6.6-24c0.1-0.4,0.2-0.9,0.3-1.3
	c0.2-0.9,0.4-1.8,0.7-2.7c0.7-2.6,1.3-5.2,1.9-7.9c0.1-0.5,0.2-1,0.3-1.5c0.2-0.9,0.3-1.8,0.4-2.7c0.3-2.2,0.5-4.5,0.4-6.8
	c0.1,0,0.2,0,0.3-0.1c0,0,0.1,0,0.1-0.1c0.3-0.2,0.3-0.7,0.2-1.1c3.6-5.4,5.6-11.3,5.2-17.9c-0.2-3.9-2.2-7.3-3-11
	c0.2-2.9,0.4-5.7,0.6-8.6c0.6-0.7,1.2-1.3,1.7-2c0.6-0.7,1.1-1.3,1.7-2c0.5-0.7,1.1-1.4,1.6-2c1.1-1.4,2.1-2.8,3.1-4.2
	c1.5-2.1,2.9-4.3,4.2-6.5c0.4-0.7,0.9-1.5,1.3-2.2c0.4-0.8,0.8-1.5,1.2-2.3c0.4-0.8,0.8-1.5,1.2-2.3c0.4-0.8,0.8-1.5,1.1-2.3
	c0.7-1.6,1.4-3.2,2.1-4.8c0.7-1.6,7.7-21.8,7.6-23.3c5.1-20.2,4.3-40.5-0.5-60.6c-3.6-15.1-9.6-29.6-17.8-42.8
	c-8.6-14.1-18.5-27-31.4-37.5c2.6-6.6,5.2-13.2,7.7-19.8c1.5-3.9,2.9-7.9,4.2-11.9c0.4-1.2,0.6-2.3,1.9-2.7
	c4.8,3.7,9.3,7.8,13.8,11.9c15.2,14.4,28.5,30.7,39.6,48.5c3.3,6.2,6.9,12.2,10,18.5c9.3,19,15.6,39.3,18.8,60.2
	C806.5,456.7,806.7,475.1,804.4,493.2z"/>
<path class="st6" d="M722.2,456.7c-0.2,9-4.5,15.8-12,19.8c-7.5,4.2-16.6,3.7-23.6-1.2c-3.6-2.2-6.5-5.6-8.1-9.5
	c-0.6-1.8-2-3.2-3.7-3.8c-19.6-7.4-38.9-15.5-57.8-24.7c-0.5-0.2-1-0.3-1.5-0.4c-11.4-6.2-22.9-12.2-33.4-20c-3.5-3.5-7-7-10.6-10.5
	c-3.1-4.2-6.3-8.3-9.2-12.6c-10.3-14.8-18.1-31-24.8-47.7c-1.6-4.9-3.2-9.7-4.7-14.6c-1.3-4.1-1.2-4.1,2.8-4.2c0.5,0,1-0.1,1.5-0.1
	c10.8,1.9,21.7,3.1,32.2,6.1c0.7,0.1,1.3,0.1,2,0.1c3.4,1.3,6.8,2.3,10.4,3c7.9,3.2,16,5.7,23.7,9.4c3.3,1.6,6.6,3.1,9.9,4.7
	c12.9,7.5,24.7,16.8,34.9,27.6c14,14.9,25.7,32,34.5,50.5c0.5,1.1,1.1,2.1,1.6,3.2c1.8,3.7,1.8,3.8,5.9,2.5
	c8.9-2.6,16.7-0.3,23.7,5.4C719.9,444.6,722.4,450,722.2,456.7z"/>
<path class="st4" d="M571.2,408.4c0,22.8,0,45.5,0.1,68.3c-11,0.7-22,2.2-32.8,4.3c-0.5,0-1,0-1.5-0.1c0-7.4-0.1-14.8-0.2-22.3
	c0.1-1.9,0.2-3.7,0.2-5.6c0-33.6,0-67.3,0-100.9c0-2,0.2-4,0.3-6.1c6.7,16.7,14.4,32.9,24.8,47.7c3,4.3,6.2,8.4,9.2,12.6
	C571.4,407.1,571.3,407.7,571.2,408.4z"/>
<path class="st0" d="M831.9,317c-0.4-0.1-0.7-0.3-0.6-0.7C831.6,316.4,831.8,316.6,831.9,317z"/>
<path class="st3" d="M614.5,481.3c-9.6-2.6-19.4-4.1-29.4-4.4c-1.2-0.1-2.3-0.2-3.5-0.4c0-17.2,0.1-34.3,0.1-51.5
	c0-2.7,0.2-5.4,0.3-8.1c10.5,7.8,22,13.8,33.4,20c0,13,0,26-0.1,39.1C615.3,477.8,616,479.8,614.5,481.3z"/>
<path class="st6" d="M730.6,528.8c-0.2,2.9-0.4,5.7-0.6,8.6c-0.6-0.6-1.2-1.2-1.7-1.9c-4.5-6.7-12.1-10.9-20.2-11
	c-2.6-0.1-3.5-1-3.5-3.6c0.2-7.4-0.1-14.9-0.9-22.3c-0.5-4.9-1-9.8-1.7-14.6c-0.2-1.4-0.1-2.4,1.3-2.7c8.4-1.7,14.4-6.8,19.2-13.7
	c0.3-0.4,0.6-0.7,1.2-1.3c1.8,5,2.5,10,3.2,15c2.2,15.1,3.8,30.2,3.4,45.5C730.4,527.5,730.5,528.1,730.6,528.8z"/>
<path class="st6" d="M727.7,567.4c0,0-0.1,0-0.1,0.1c-0.1,0-0.2,0.1-0.3,0.1c0,0-0.1,0-0.1,0c-0.1-0.5,0.2-1.1,0.7-1.3
	C728,566.7,728,567.2,727.7,567.4z"/>
</svg>
