<svg id="Layer_1" data-name="Layer 1" xmlns="http://www.w3.org/2000/svg" xmlns:xlink="http://www.w3.org/1999/xlink" viewBox="0 0 236.65 126.16"><defs><style>.cls-1,.cls-2,.cls-3{fill:none;stroke-linecap:round;stroke-linejoin:round;stroke-width:20.88px;}.cls-1{stroke:url(#linear-gradient);}.cls-2{stroke:url(#linear-gradient-2);}.cls-3{stroke:url(#linear-gradient-3);}</style><linearGradient id="linear-gradient" x1="127.47" y1="77.4" x2="236.65" y2="77.4" gradientUnits="userSpaceOnUse"><stop offset="0" stop-color="#e8596d"/><stop offset="0.14" stop-color="#e64a6d"/><stop offset="0.35" stop-color="#e43a6e"/><stop offset="0.59" stop-color="#e3306e"/><stop offset="0.91" stop-color="#e32d6e"/><stop offset="1" stop-color="#bc447b"/></linearGradient><linearGradient id="linear-gradient-2" y1="63.01" x2="178.95" y2="63.01" gradientUnits="userSpaceOnUse"><stop offset="0" stop-color="#eb7367"/><stop offset="0.16" stop-color="#eb7367"/><stop offset="1" stop-color="#e32d6e"/></linearGradient><linearGradient id="linear-gradient-3" x1="98.88" y1="110.57" x2="129.98" y2="110.57" gradientUnits="userSpaceOnUse"><stop offset="0" stop-color="#eb7367"/><stop offset="1" stop-color="#e32d6e"/></linearGradient></defs><path class="cls-1" d="M137.91,83.84,158.36,104a40,40,0,0,0,56.51-.26c.34-.35.68-.7,1-1.06,14.69-15.92,13.44-40.88-1.95-56.13h0a25.36,25.36,0,0,0-35.85.16L167.86,57"/><path class="cls-2" d="M80.33,55.62l-5.08-5.09a38,38,0,1,0,.25,53.79h0l93-93.88"/><line class="cls-3" x1="119.54" y1="105.42" x2="109.32" y2="115.72"/></svg>